<svg width="40" height="29" viewBox="0 0 40 29" fill="none" xmlns="http://www.w3.org/2000/svg">
<path d="M9.368 8.37965C11.72 8.37965 13.46 8.89565 14.588 9.92765C15.716 10.9596 16.28 12.6036 16.28 14.8596V27.9997H13.976L13.364 25.2637H13.22C12.668 25.9597 12.092 26.5477 11.492 27.0277C10.916 27.4837 10.244 27.8197 9.476 28.0357C8.732 28.2517 7.82 28.3596 6.74 28.3596C5.588 28.3596 4.544 28.1557 3.608 27.7477C2.696 27.3397 1.976 26.7157 1.448 25.8757C0.919998 25.0117 0.655998 23.9317 0.655998 22.6357C0.655998 20.7157 1.412 19.2396 2.924 18.2076C4.436 17.1516 6.764 16.5756 9.908 16.4796L13.184 16.3716V15.2196C13.184 13.6116 12.836 12.4956 12.14 11.8716C11.444 11.2476 10.46 10.9356 9.188 10.9356C8.18 10.9356 7.22 11.0916 6.308 11.4036C5.396 11.6916 4.544 12.0276 3.752 12.4116L2.78 10.0357C3.62 9.57965 4.616 9.19565 5.768 8.88365C6.92 8.54765 8.12 8.37965 9.368 8.37965ZM10.304 18.6756C7.904 18.7716 6.236 19.1556 5.3 19.8277C4.388 20.4997 3.932 21.4476 3.932 22.6716C3.932 23.7516 4.256 24.5436 4.904 25.0476C5.576 25.5516 6.428 25.8036 7.46 25.8036C9.092 25.8036 10.448 25.3596 11.528 24.4716C12.608 23.5596 13.148 22.1677 13.148 20.2957V18.5676L10.304 18.6756Z" fill="black"/>
<path d="M25.4077 7.29965C25.4077 8.11565 25.3837 8.88365 25.3357 9.60365C25.3117 10.2996 25.2757 10.8516 25.2277 11.2596H25.4077C25.9597 10.4436 26.7157 9.75965 27.6757 9.20765C28.6357 8.65565 29.8717 8.37965 31.3837 8.37965C33.7837 8.37965 35.7037 9.21965 37.1437 10.8996C38.6077 12.5556 39.3397 15.0396 39.3397 18.3517C39.3397 20.5596 39.0037 22.4077 38.3317 23.8957C37.6837 25.3837 36.7597 26.4997 35.5597 27.2437C34.3597 27.9877 32.9677 28.3596 31.3837 28.3596C29.8717 28.3596 28.6357 28.0837 27.6757 27.5317C26.7157 26.9797 25.9597 26.3197 25.4077 25.5517H25.1557L24.5077 27.9997H22.2397V0.639648H25.4077V7.29965ZM30.8437 11.0076C29.4757 11.0076 28.3957 11.2716 27.6037 11.7996C26.8117 12.3036 26.2477 13.0956 25.9117 14.1756C25.5757 15.2316 25.4077 16.5876 25.4077 18.2436V18.3876C25.4077 20.7636 25.7917 22.5876 26.5597 23.8596C27.3517 25.1076 28.8037 25.7316 30.9157 25.7316C32.6437 25.7316 33.9277 25.0957 34.7677 23.8237C35.6317 22.5517 36.0637 20.7156 36.0637 18.3156C36.0637 15.8916 35.6317 14.0676 34.7677 12.8436C33.9277 11.6196 32.6197 11.0076 30.8437 11.0076Z" fill="black"/>
</svg>
