<svg width="76" height="34" viewBox="0 0 76 34" fill="none" xmlns="http://www.w3.org/2000/svg">
<path d="M0 6.444H29.016V23.364H26.244V9.072H2.7V23.544H0V6.444ZM1.44 18.648H27.864V21.312H1.44V18.648ZM13.032 0H15.876V33.084H13.032V0Z" fill="black"/>
<path d="M48.2159 4L38.6399 29.704H35.5439L45.1199 4H48.2159Z" fill="black"/>
<path d="M53.9999 18.488H75.3119V20.192H53.9999V18.488ZM56.4719 12.872H72.9359V19.184H71.1359V14.456H58.1999V19.184H56.4719V12.872ZM63.5999 10.112H65.4719V16.76C65.4719 17.592 65.3919 18.408 65.2319 19.208C65.0879 19.992 64.8079 20.768 64.3919 21.536C63.9759 22.288 63.3679 23.008 62.5679 23.696C61.7679 24.368 60.7199 24.992 59.4239 25.568C58.1439 26.16 56.5519 26.68 54.6479 27.128C54.5839 27 54.4879 26.84 54.3599 26.648C54.2319 26.456 54.0959 26.264 53.9519 26.072C53.8239 25.896 53.6879 25.744 53.5439 25.616C55.3679 25.216 56.8879 24.76 58.1039 24.248C59.3199 23.736 60.2959 23.184 61.0319 22.592C61.7679 22 62.3199 21.384 62.6879 20.744C63.0559 20.104 63.2959 19.448 63.4079 18.776C63.5359 18.104 63.5999 17.424 63.5999 16.736V10.112ZM65.7599 19.112C66.5279 20.92 67.7599 22.352 69.4559 23.408C71.1679 24.448 73.3119 25.144 75.8879 25.496C75.7439 25.624 75.5999 25.784 75.4559 25.976C75.3119 26.168 75.1759 26.368 75.0479 26.576C74.9199 26.784 74.8159 26.968 74.7359 27.128C72.9439 26.808 71.3599 26.328 69.9839 25.688C68.6239 25.048 67.4559 24.216 66.4799 23.192C65.5199 22.168 64.7359 20.944 64.1279 19.52L65.7599 19.112ZM54.2879 7.208H74.9039V8.84H54.2879V7.208ZM59.3759 5H61.1519V11.36H59.3759V5ZM67.9919 5H69.7919V11.36H67.9919V5Z" fill="#898989"/>
</svg>
