<svg width="39" height="39" viewBox="0 0 39 39" fill="none" xmlns="http://www.w3.org/2000/svg">
<path d="M28.6406 6.70312V2.4375C28.6406 1.09307 27.5476 0 26.2031 0H5.48438C4.13994 0 3.04688 1.09307 3.04688 2.4375V29.25C3.04688 30.5944 4.13994 31.6875 5.48438 31.6875H9.75C10.0852 31.6875 10.3594 31.9617 10.3594 32.2969V36.5625C10.3594 37.9069 11.4524 39 12.7969 39H33.5156C34.8601 39 35.9531 37.9069 35.9531 36.5625V9.75C35.9531 8.40557 34.8601 7.3125 33.5156 7.3125H29.25C28.9148 7.3125 28.6406 7.03828 28.6406 6.70312ZM9.75 29.25H6.09375C5.75859 29.25 5.48438 28.9758 5.48438 28.6406V3.04688C5.48438 2.71172 5.75859 2.4375 6.09375 2.4375H25.5938C25.9289 2.4375 26.2031 2.71172 26.2031 3.04688V6.70312C26.2031 7.03828 25.9289 7.3125 25.5938 7.3125H12.7969C11.4524 7.3125 10.3594 8.40557 10.3594 9.75V28.6406C10.3594 28.9758 10.0852 29.25 9.75 29.25ZM32.9062 36.5625H13.4062C13.0711 36.5625 12.7969 36.2883 12.7969 35.9531V10.3594C12.7969 10.0242 13.0711 9.75 13.4062 9.75H32.9062C33.2414 9.75 33.5156 10.0242 33.5156 10.3594V35.9531C33.5156 36.2883 33.2414 36.5625 32.9062 36.5625Z" fill="black"/>
<path d="M26.8125 13.4062H19.5C18.8259 13.4062 18.2812 12.8616 18.2812 12.1875C18.2812 11.5134 18.8259 10.9688 19.5 10.9688H26.8125C27.4866 10.9688 28.0312 11.5134 28.0312 12.1875C28.0312 12.8616 27.4866 13.4062 26.8125 13.4062Z" fill="black"/>
</svg>
