<svg width="35" height="34" viewBox="0 0 35 34" fill="none" xmlns="http://www.w3.org/2000/svg">
<path d="M23.2406 26.4975C23.345 26.6011 23.4279 26.7244 23.4845 26.8602C23.5411 26.996 23.5702 27.1416 23.5702 27.2887C23.5702 27.4358 23.5411 27.5815 23.4845 27.7173C23.4279 27.8531 23.345 27.9763 23.2406 28.0799L18.5109 32.7867C18.3727 32.9248 18.2078 33.0188 18.0319 33.0694C17.8257 33.157 17.598 33.1811 17.3779 33.1386C17.1579 33.0961 16.9556 32.989 16.7968 32.8309L12.068 28.1242C11.9635 28.0206 11.8806 27.8973 11.8241 27.7615C11.7675 27.6257 11.7384 27.4801 11.7384 27.333C11.7384 27.1859 11.7675 27.0402 11.8241 26.9044C11.8806 26.7686 11.9635 26.6454 12.068 26.5417C12.2793 26.3319 12.565 26.2142 12.8628 26.2142C13.1606 26.2142 13.4464 26.3319 13.6577 26.5417L17.6313 30.4969L21.6499 26.4975C21.8613 26.2875 22.1472 26.1695 22.4453 26.1695C22.7433 26.1695 23.0292 26.2875 23.2406 26.4975ZM31.2881 0C33.3356 0 35 1.65702 35 3.69352V19.2864C35 21.322 33.3356 22.9799 31.289 22.9799H3.71102C1.66439 22.9799 3.82111e-07 21.322 3.82111e-07 19.2864V3.6926C-0.000920695 1.65794 1.66347 0 3.7101 0H31.2881ZM31.2881 2.23822H3.71102C2.90416 2.23822 2.24835 2.89034 2.24835 3.69352V19.2864C2.24835 20.0887 2.90416 20.7417 3.71102 20.7417H31.2881C32.0949 20.7417 32.7507 20.0887 32.7507 19.2864V3.6926C32.7507 2.89126 32.0949 2.2373 31.2881 2.2373V2.23822Z" fill="black"/>
<path d="M7.82166 8.67125H5.33291C5.1523 8.67149 4.97897 8.60004 4.851 8.47259C4.72303 8.34514 4.65088 8.17211 4.65039 7.99149V5.5138C4.65112 5.33335 4.72338 5.16055 4.85133 5.0333C4.97927 4.90604 5.15246 4.83472 5.33291 4.83496H7.82166C8.1993 4.83496 8.5051 5.13892 8.5051 5.51472V7.99242C8.50437 8.17303 8.43198 8.34596 8.30384 8.47324C8.17569 8.60052 8.00227 8.67174 7.82166 8.67125ZM13.2836 8.67125H10.794C10.7045 8.67149 10.6158 8.6541 10.533 8.62007C10.4502 8.58604 10.3749 8.53604 10.3115 8.47292C10.248 8.4098 10.1976 8.33479 10.1631 8.25219C10.1286 8.16959 10.1108 8.081 10.1105 7.99149V5.5138C10.1113 5.33319 10.1837 5.16025 10.3118 5.03297C10.4399 4.90569 10.6134 4.83447 10.794 4.83496H13.2827C13.6604 4.83496 13.9662 5.13892 13.9662 5.51472V7.99242C13.9654 8.17303 13.893 8.34596 13.7649 8.47324C13.6368 8.60052 13.4633 8.67174 13.2827 8.67125H13.2836ZM18.7438 8.67125H16.255C16.1655 8.67149 16.0769 8.6541 15.9941 8.62007C15.9113 8.58604 15.836 8.53604 15.7725 8.47292C15.7091 8.4098 15.6587 8.33479 15.6242 8.25219C15.5897 8.16959 15.5718 8.081 15.5716 7.99149V5.5138C15.5723 5.33319 15.6447 5.16025 15.7729 5.03297C15.901 4.90569 16.0744 4.83447 16.255 4.83496H18.7438C19.1214 4.83496 19.4263 5.13892 19.4263 5.51472V7.99242C19.4256 8.17287 19.3533 8.34566 19.2254 8.47292C19.0974 8.60017 18.9242 8.67149 18.7438 8.67125ZM24.2049 8.67125H21.7152C21.5346 8.67149 21.3612 8.60004 21.2333 8.47259C21.1053 8.34514 21.0332 8.17211 21.0327 7.99149V5.5138C21.0334 5.33335 21.1057 5.16055 21.2336 5.0333C21.3615 4.90604 21.5347 4.83472 21.7152 4.83496H24.2049C24.5825 4.83496 24.8874 5.13892 24.8874 5.51472V7.99242C24.8866 8.17287 24.8144 8.34566 24.6864 8.47292C24.5585 8.60017 24.3853 8.67149 24.2049 8.67125ZM29.6659 8.67125H27.1762C26.9956 8.67149 26.8223 8.60004 26.6943 8.47259C26.5664 8.34514 26.4942 8.17211 26.4937 7.99149V5.5138C26.4945 5.33335 26.5667 5.16055 26.6947 5.0333C26.8226 4.90604 26.9958 4.83472 27.1762 4.83496H29.6659C30.0426 4.83496 30.3475 5.13892 30.3475 5.51472V7.99242C30.3468 8.17271 30.2747 8.34536 30.1469 8.47259C30.0192 8.59982 29.8462 8.67125 29.6659 8.67125ZM7.82166 13.7464H5.33291C5.15246 13.7466 4.97927 13.6753 4.85133 13.5481C4.72338 13.4208 4.65112 13.248 4.65039 13.0675V10.5899C4.65088 10.4092 4.72303 10.2362 4.851 10.1088C4.97897 9.9813 5.1523 9.90985 5.33291 9.9101H7.82166C8.1993 9.9101 8.5051 10.2141 8.5051 10.5899V13.0675C8.50486 13.1571 8.48699 13.2456 8.45251 13.3282C8.41803 13.4108 8.36762 13.4859 8.30416 13.549C8.2407 13.6121 8.16542 13.6621 8.08263 13.6961C7.99985 13.7302 7.91117 13.7475 7.82166 13.7473V13.7464ZM13.2836 13.7464H10.794C10.6134 13.7469 10.4399 13.6757 10.3118 13.5484C10.1837 13.4211 10.1113 13.2482 10.1105 13.0675V10.5899C10.1108 10.5003 10.1286 10.4118 10.1631 10.3292C10.1976 10.2466 10.248 10.1716 10.3115 10.1084C10.3749 10.0453 10.4502 9.9953 10.533 9.96128C10.6158 9.92725 10.7045 9.90986 10.794 9.9101H13.2827C13.6604 9.9101 13.9662 10.2141 13.9662 10.5899V13.0675C13.9659 13.1571 13.9481 13.2456 13.9136 13.3282C13.8791 13.4108 13.8287 13.4859 13.7652 13.549C13.7018 13.6121 13.6265 13.6621 13.5437 13.6961C13.4609 13.7302 13.3722 13.7475 13.2827 13.7473L13.2836 13.7464ZM18.7438 13.7464H16.255C16.0744 13.7469 15.901 13.6757 15.7729 13.5484C15.6447 13.4211 15.5723 13.2482 15.5716 13.0675V10.5899C15.5718 10.5003 15.5897 10.4118 15.6242 10.3292C15.6587 10.2466 15.7091 10.1716 15.7725 10.1084C15.836 10.0453 15.9113 9.9953 15.9941 9.96128C16.0769 9.92725 16.1655 9.90986 16.255 9.9101H18.7438C19.1214 9.9101 19.4263 10.2141 19.4263 10.5899V13.0675C19.4258 13.2482 19.3537 13.4212 19.2257 13.5486C19.0977 13.6761 18.9244 13.7475 18.7438 13.7473V13.7464ZM24.2049 13.7464H21.7152C21.5347 13.7466 21.3615 13.6753 21.2336 13.5481C21.1057 13.4208 21.0334 13.248 21.0327 13.0675V10.5899C21.0332 10.4092 21.1053 10.2362 21.2333 10.1088C21.3612 9.9813 21.5346 9.90985 21.7152 9.9101H24.2049C24.5825 9.9101 24.8874 10.2141 24.8874 10.5899V13.0675C24.8869 13.2482 24.8147 13.4212 24.6868 13.5486C24.5588 13.6761 24.3855 13.7475 24.2049 13.7473V13.7464ZM29.6659 13.7464H27.1762C26.9958 13.7466 26.8226 13.6753 26.6947 13.5481C26.5667 13.4208 26.4945 13.248 26.4937 13.0675V10.5899C26.4942 10.4092 26.5664 10.2362 26.6943 10.1088C26.8223 9.9813 26.9956 9.90985 27.1762 9.9101H29.6659C30.0426 9.9101 30.3475 10.2141 30.3475 10.5899V13.0675C30.347 13.248 30.275 13.4209 30.1472 13.5483C30.0195 13.6757 29.8464 13.7473 29.6659 13.7473V13.7464ZM29.8934 18.1933H5.1054C4.98512 18.1931 4.8698 18.1453 4.78458 18.0605C4.69935 17.9756 4.65112 17.8605 4.65039 17.7402V16.1891C4.65039 15.9404 4.85487 15.7359 5.1054 15.7359H29.8934C30.143 15.7359 30.3484 15.9404 30.3484 16.1891V17.7402C30.3484 17.9889 30.143 18.1933 29.8934 18.1933Z" fill="black"/>
</svg>
