<svg width="40" height="40" viewBox="0 0 40 40" fill="none" xmlns="http://www.w3.org/2000/svg">
<path d="M37.2881 31.6916H37.291V31.6738L37.2881 31.6916Z" fill="#272536"/>
<path d="M34.1482 5.85182C26.3471 -1.95061 13.6529 -1.95061 5.85182 5.85182C-1.95061 13.6528 -1.95061 26.3471 5.85182 34.1481C13.6529 41.9506 26.3472 41.9506 34.1482 34.1481C41.9506 26.3471 41.9506 13.6528 34.1482 5.85182ZM32.1175 32.1189C25.4359 38.8004 14.5626 38.799 7.88181 32.1189C1.19953 25.4359 1.19953 14.5647 7.88181 7.88181C14.5626 1.20095 25.436 1.19948 32.1175 7.88181C38.799 14.5626 38.799 25.4373 32.1175 32.1189Z" fill="black"/>
<path d="M13.7577 17.8922C14.9452 17.8922 15.9117 16.9258 15.9117 15.7376C15.9117 14.5479 14.9452 13.5801 13.7577 13.5801C12.5674 13.5801 11.6009 14.5479 11.6009 15.7376C11.6009 16.9258 12.5674 17.8922 13.7577 17.8922Z" fill="black"/>
<path d="M26.1658 17.8958C27.3546 17.8958 28.3224 16.9273 28.3224 15.7391C28.3224 14.5494 27.3546 13.583 26.1658 13.583C24.9781 13.583 24.0118 14.5494 24.0118 15.7391C24.0118 16.9273 24.9781 17.8958 26.1658 17.8958Z" fill="black"/>
<path d="M26.2408 25.13L26.1232 25.1683C24.1917 26.0427 22.1199 26.4876 19.9703 26.4876C17.7497 26.4876 15.6495 26.0384 13.7266 25.1556L13.6104 25.12C13.5381 25.1002 13.4403 25.0719 13.3184 25.0719C12.6113 25.0719 12.0374 25.6459 12.0374 26.3501C12.0374 26.6845 12.1947 27.0204 12.454 27.2727L12.4385 27.3505L12.7658 27.4979C15.0615 28.5367 17.5584 29.0837 19.9858 29.0837C22.4587 29.0837 24.8818 28.5509 27.2201 27.4852C27.6309 27.2598 27.8874 26.8277 27.8874 26.3586C27.8874 25.5326 27.1407 24.8537 26.2408 25.13Z" fill="black"/>
</svg>
