<svg width="39" height="39" viewBox="0 0 39 39" fill="none" xmlns="http://www.w3.org/2000/svg">
<path d="M19.5 0C15.6433 0 11.8731 1.14365 8.66639 3.28634C5.45963 5.42903 2.96027 8.47451 1.48436 12.0377C0.00844902 15.6008 -0.377716 19.5216 0.374696 23.3043C1.12711 27.0869 2.9843 30.5615 5.71142 33.2886C8.43855 36.0157 11.9131 37.8729 15.6957 38.6253C19.4784 39.3777 23.3992 38.9916 26.9623 37.5156C30.5255 36.0397 33.571 33.5404 35.7137 30.3336C37.8563 27.1269 39 23.3567 39 19.5C38.9942 14.33 36.9379 9.37349 33.2822 5.71778C29.6265 2.06207 24.67 0.0057604 19.5 0ZM19.5 36.2143C16.1942 36.2143 12.9627 35.234 10.214 33.3974C7.4654 31.5608 5.32309 28.9504 4.05802 25.8963C2.79296 22.8421 2.46196 19.4815 3.10688 16.2392C3.75181 12.9969 5.34369 10.0187 7.68122 7.68121C10.0188 5.34368 12.997 3.7518 16.2392 3.10687C19.4815 2.46195 22.8421 2.79295 25.8963 4.05801C28.9504 5.32308 31.5608 7.46539 33.3974 10.214C35.234 12.9627 36.2143 16.1942 36.2143 19.5C36.2085 23.9311 34.4457 28.1791 31.3124 31.3124C28.1791 34.4457 23.9311 36.2085 19.5 36.2143Z" fill="#505050"/>
<path d="M9.05353 14.6254C9.05353 15.1795 9.27365 15.7109 9.66547 16.1028C10.0573 16.4946 10.5887 16.7147 11.1428 16.7147C11.6969 16.7147 12.2283 16.4946 12.6202 16.1028C13.012 15.7109 13.2321 15.1795 13.2321 14.6254C13.2321 14.0713 13.012 13.5399 12.6202 13.1481C12.2283 12.7563 11.6969 12.5361 11.1428 12.5361C10.5887 12.5361 10.0573 12.7563 9.66547 13.1481C9.27365 13.5399 9.05353 14.0713 9.05353 14.6254Z" fill="#505050"/>
<path d="M16.7143 16.7147C17.1275 16.7147 17.5314 16.5922 17.875 16.3626C18.2186 16.133 18.4864 15.8067 18.6445 15.425C18.8027 15.0432 18.844 14.6231 18.7634 14.2178C18.6828 13.8125 18.4838 13.4403 18.1916 13.1481C17.8994 12.8559 17.5272 12.6569 17.1219 12.5763C16.7166 12.4957 16.2965 12.537 15.9148 12.6952C15.533 12.8533 15.2067 13.1211 14.9771 13.4647C14.7475 13.8083 14.625 14.2122 14.625 14.6254C14.625 15.1795 14.8451 15.711 15.2369 16.1028C15.6288 16.4946 16.1602 16.7147 16.7143 16.7147ZM22.2857 12.5361C21.8725 12.5361 21.4685 12.6587 21.125 12.8882C20.7814 13.1178 20.5136 13.4441 20.3555 13.8259C20.1973 14.2077 20.156 14.6277 20.2366 15.033C20.3172 15.4383 20.5162 15.8106 20.8084 16.1028C21.1006 16.395 21.4728 16.5939 21.8781 16.6746C22.2834 16.7552 22.7035 16.7138 23.0852 16.5557C23.467 16.3975 23.7933 16.1297 24.0229 15.7862C24.2525 15.4426 24.375 15.0386 24.375 14.6254C24.375 14.0713 24.1549 13.5399 23.7631 13.1481C23.3712 12.7563 22.8398 12.5361 22.2857 12.5361ZM27.8571 12.5361C27.4439 12.5361 27.04 12.6587 26.6964 12.8882C26.3528 13.1178 26.085 13.4441 25.9269 13.8259C25.7688 14.2077 25.7274 14.6277 25.808 15.033C25.8886 15.4383 26.0876 15.8106 26.3798 16.1028C26.672 16.395 27.0443 16.5939 27.4495 16.6746C27.8548 16.7552 28.2749 16.7138 28.6567 16.5557C29.0384 16.3975 29.3647 16.1297 29.5943 15.7862C29.8239 15.4426 29.9464 15.0386 29.9464 14.6254C29.9464 14.0713 29.7263 13.5399 29.3345 13.1481C28.9427 12.7563 28.4113 12.5361 27.8571 12.5361Z" fill="#505050"/>
<path d="M9.05353 20.1967C9.05353 20.7508 9.27365 21.2822 9.66547 21.6741C10.0573 22.0659 10.5887 22.286 11.1428 22.286C11.6969 22.286 12.2283 22.0659 12.6202 21.6741C13.012 21.2822 13.2321 20.7508 13.2321 20.1967C13.2321 19.6426 13.012 19.1112 12.6202 18.7194C12.2283 18.3275 11.6969 18.1074 11.1428 18.1074C10.5887 18.1074 10.0573 18.3275 9.66547 18.7194C9.27365 19.1112 9.05353 19.6426 9.05353 20.1967Z" fill="#505050"/>
<path d="M16.7143 22.286C17.1275 22.286 17.5314 22.1635 17.875 21.9339C18.2186 21.7043 18.4864 21.378 18.6445 20.9962C18.8027 20.6145 18.844 20.1944 18.7634 19.7891C18.6828 19.3838 18.4838 19.0116 18.1916 18.7194C17.8994 18.4272 17.5272 18.2282 17.1219 18.1476C16.7166 18.067 16.2965 18.1083 15.9148 18.2665C15.533 18.4246 15.2067 18.6924 14.9771 19.036C14.7475 19.3795 14.625 19.7835 14.625 20.1967C14.625 20.7508 14.8451 21.2822 15.2369 21.6741C15.6288 22.0659 16.1602 22.286 16.7143 22.286ZM22.2857 25.0717H16.7143C16.1602 25.0717 15.6288 25.2918 15.2369 25.6836C14.8451 26.0755 14.625 26.6069 14.625 27.161C14.625 27.7151 14.8451 28.2465 15.2369 28.6383C15.6288 29.0302 16.1602 29.2503 16.7143 29.2503H22.2857C22.8398 29.2503 23.3712 29.0302 23.7631 28.6383C24.1549 28.2465 24.375 27.7151 24.375 27.161C24.375 26.6069 24.1549 26.0755 23.7631 25.6836C23.3712 25.2918 22.8398 25.0717 22.2857 25.0717ZM22.2857 18.1074C21.8725 18.1074 21.4685 18.23 21.125 18.4595C20.7814 18.6891 20.5136 19.0154 20.3555 19.3972C20.1973 19.7789 20.156 20.199 20.2366 20.6043C20.3172 21.0096 20.5162 21.3819 20.8084 21.6741C21.1006 21.9662 21.4728 22.1652 21.8781 22.2458C22.2834 22.3265 22.7035 22.2851 23.0852 22.127C23.467 21.9688 23.7933 21.701 24.0229 21.3575C24.2525 21.0139 24.375 20.6099 24.375 20.1967C24.375 19.6426 24.1549 19.1112 23.7631 18.7194C23.3712 18.3275 22.8398 18.1074 22.2857 18.1074ZM27.8571 18.1074C27.4439 18.1074 27.04 18.23 26.6964 18.4595C26.3528 18.6891 26.085 19.0154 25.9269 19.3972C25.7688 19.7789 25.7274 20.199 25.808 20.6043C25.8886 21.0096 26.0876 21.3819 26.3798 21.6741C26.672 21.9662 27.0443 22.1652 27.4495 22.2458C27.8548 22.3265 28.2749 22.2851 28.6567 22.127C29.0384 21.9688 29.3647 21.701 29.5943 21.3575C29.8239 21.0139 29.9464 20.6099 29.9464 20.1967C29.9464 19.6426 29.7263 19.1112 29.3345 18.7194C28.9427 18.3275 28.4113 18.1074 27.8571 18.1074Z" fill="#505050"/>
</svg>
