<svg width="35" height="34" viewBox="0 0 35 34" fill="none" xmlns="http://www.w3.org/2000/svg">
<path d="M25.251 18.3834H31.9949L18.4133 4.0478C18.296 3.92391 18.1547 3.8254 17.998 3.75832C17.8414 3.69124 17.6728 3.657 17.5025 3.6577C17.3322 3.65841 17.1638 3.69404 17.0078 3.76242C16.8517 3.8308 16.7112 3.93047 16.5949 4.05533L3.24949 18.3834H9.74845V30.0952C9.74845 30.8142 10.3271 31.3976 11.0407 31.3976H23.9599C24.6723 31.3976 25.251 30.8142 25.251 30.0952V18.3834ZM27.8356 20.9857V31.3976C27.8362 31.7389 27.7699 32.077 27.6403 32.3926C27.5108 32.7081 27.3205 32.9949 27.0805 33.2366C26.8405 33.4783 26.5553 33.6701 26.2414 33.8011C25.9275 33.9321 25.5909 33.9997 25.251 34H9.74845C9.40861 33.9995 9.07219 33.9318 8.75841 33.8007C8.44464 33.6697 8.15966 33.4778 7.91976 33.2362C7.67986 32.9945 7.48974 32.7077 7.36025 32.3923C7.23077 32.0768 7.16446 31.7388 7.16511 31.3976V20.9857H2.58334C2.2435 20.9852 1.90708 20.9175 1.5933 20.7864C1.27953 20.6554 0.994553 20.4635 0.754651 20.2219C0.514749 19.9802 0.324625 19.6934 0.19514 19.378C0.0656557 19.0625 -0.000652229 18.7245 4.83582e-06 18.3834C4.83582e-06 17.7447 0.232468 17.1299 0.652401 16.653L15.6888 0.780426C15.9223 0.533845 16.2033 0.337507 16.5147 0.203345C16.8261 0.0691833 17.1615 0 17.5003 0C17.8392 0 18.1746 0.0691833 18.486 0.203345C18.7974 0.337507 19.0784 0.533845 19.3119 0.780426L34.347 16.653C34.8025 17.1696 35.0356 17.8462 34.9956 18.5349C34.9555 19.2236 34.6455 19.8683 34.1333 20.3282C33.6608 20.7517 33.0495 20.9858 32.4161 20.9857H27.8356Z" fill="black"/>
</svg>
