<svg width="74" height="39" viewBox="0 0 74 39" fill="none" xmlns="http://www.w3.org/2000/svg">
<path d="M21.872 18.264C21.264 17.176 20.576 16.072 19.808 14.952V30.6H17.696V9.072L19.808 9.168V13.512L20.696 12.84C21.048 13.288 21.52 13.952 22.112 14.832C22.704 15.696 23.16 16.384 23.48 16.896L21.872 18.264ZM29.144 21.816C29.72 23.368 30.576 24.72 31.712 25.872C32.864 27.008 34.36 27.968 36.2 28.752L35.096 30.72C31.704 29.12 29.312 26.832 27.92 23.856C27.424 25.168 26.64 26.368 25.568 27.456C24.512 28.544 23.056 29.656 21.2 30.792L20.024 28.944C21.912 27.888 23.36 26.8 24.368 25.68C25.376 24.544 26.04 23.256 26.36 21.816H21.224V19.752H26.6V14.784H22.832V12.672H26.6L26.624 9.096L28.736 9.168V12.672H33.776V19.752H35.768V21.816H29.144ZM14 21.48C14.256 20.376 14.52 19 14.792 17.352C15.08 15.688 15.296 14.208 15.44 12.912L17.312 13.128C17.152 14.392 16.928 15.896 16.64 17.64C16.352 19.368 16.096 20.76 15.872 21.816L14 21.48ZM28.664 19.752H31.64V14.784H28.712L28.688 19.224C28.688 19.464 28.68 19.64 28.664 19.752Z" fill="#505050"/>
<path d="M55.937 28.248C57.361 28.248 58.649 28.216 59.801 28.152L59.393 30C57.841 30.08 56.473 30.12 55.289 30.12C54.617 30.12 54.113 30.112 53.777 30.096C52.241 30.064 50.969 29.856 49.961 29.472C48.953 29.104 48.073 28.432 47.321 27.456C46.697 28.752 45.769 29.936 44.537 31.008L42.977 29.64C44.081 28.744 44.897 27.784 45.425 26.76C45.953 25.736 46.249 24.544 46.313 23.184L48.377 23.4C48.297 24.072 48.201 24.688 48.089 25.248C48.425 25.872 48.809 26.384 49.241 26.784C49.689 27.184 50.225 27.496 50.849 27.72V22.68H45.785V20.952H50.849V19.392H45.329V17.712H50.849V16.128H45.929V14.424H50.849V12.816H45.593V11.064H50.849V9L52.841 9.072V11.064H58.793V12.816H52.841V14.424H57.881V17.712H59.465V19.392H57.881V22.68H52.841V24.144H58.505V25.92H52.841V28.152C53.561 28.2 53.953 28.224 54.017 28.224C54.449 28.24 55.089 28.248 55.937 28.248ZM43.265 27.648C43.265 28.336 43.177 28.848 43.001 29.184C42.841 29.536 42.569 29.784 42.185 29.928C41.801 30.088 41.217 30.2 40.433 30.264L39.473 30.36L38.849 28.296L39.977 28.2C40.521 28.136 40.873 28.032 41.033 27.888C41.209 27.744 41.297 27.44 41.297 26.976V21.744C40.081 22.176 39.089 22.504 38.321 22.728L37.889 20.808C38.817 20.552 39.953 20.184 41.297 19.704V15.24H38.729V13.368H41.297V9.024L43.265 9.096V13.368H45.305V15.24H43.265V18.96C44.017 18.672 44.505 18.472 44.729 18.36L44.873 19.296L45.065 20.28C44.489 20.536 43.889 20.784 43.265 21.024V27.648ZM55.937 16.128H52.841V17.712H55.937V16.128ZM55.937 19.392H52.841V20.952H55.937V19.392Z" fill="#505050"/>
<rect x="1.5" y="1.5" width="71" height="36" rx="2.5" stroke="#505050" stroke-width="3"/>
</svg>
