<svg width="33" height="34" viewBox="0 0 33 34" fill="none" xmlns="http://www.w3.org/2000/svg">
<path d="M11.132 15.4123H32.948V17.9323H11.132V15.4123ZM8.36 11.2003L10.916 12.0643C10.22 13.5043 9.404 14.9563 8.468 16.4203C7.532 17.8603 6.548 19.2163 5.516 20.4883C4.484 21.7363 3.428 22.8403 2.348 23.8003C2.228 23.6323 2.048 23.4163 1.808 23.1523C1.592 22.8643 1.364 22.5763 1.124 22.2883C0.883998 22.0003 0.667998 21.7723 0.475998 21.6043C1.508 20.7403 2.504 19.7563 3.464 18.6523C4.424 17.5243 5.324 16.3363 6.164 15.0883C7.028 13.8163 7.76 12.5203 8.36 11.2003ZM25.388 11.5243H28.052V30.4603C28.052 31.3003 27.932 31.9363 27.692 32.3683C27.452 32.8003 27.02 33.1363 26.396 33.3763C25.796 33.5683 24.956 33.6883 23.876 33.7363C22.796 33.7843 21.44 33.8083 19.808 33.8083C19.76 33.4243 19.64 32.9803 19.448 32.4763C19.256 31.9723 19.064 31.5403 18.872 31.1803C19.736 31.2043 20.552 31.2163 21.32 31.2163C22.088 31.2163 22.748 31.2163 23.3 31.2163C23.876 31.2163 24.272 31.2163 24.488 31.2163C24.848 31.1923 25.088 31.1323 25.208 31.0363C25.328 30.9403 25.388 30.7363 25.388 30.4243V11.5243ZM5.012 4.18034H16.1V6.52035H5.012V4.18034ZM18.872 4.18034H32.624V6.52035H18.872V4.18034ZM5.552 0.652344L8.18 1.26434C7.748 2.56034 7.232 3.85634 6.632 5.15234C6.032 6.42434 5.384 7.62434 4.688 8.75234C4.016 9.85634 3.308 10.8403 2.564 11.7043C2.42 11.5603 2.204 11.3923 1.916 11.2003C1.628 11.0083 1.34 10.8283 1.052 10.6603C0.763998 10.4683 0.511998 10.3123 0.295998 10.1923C1.424 9.01635 2.444 7.58834 3.356 5.90834C4.268 4.20435 5 2.45234 5.552 0.652344ZM19.736 0.652344L22.292 1.26434C21.692 3.25634 20.876 5.15234 19.844 6.95234C18.836 8.72834 17.744 10.2283 16.568 11.4523C16.4 11.3083 16.172 11.1403 15.884 10.9483C15.62 10.7563 15.344 10.5643 15.056 10.3723C14.768 10.1803 14.516 10.0243 14.3 9.90434C15.5 8.80034 16.568 7.43234 17.504 5.80034C18.464 4.16834 19.208 2.45234 19.736 0.652344ZM7.568 6.01635L9.872 5.36835C10.304 6.16035 10.76 7.06035 11.24 8.06835C11.744 9.07634 12.14 9.90435 12.428 10.5523L10.016 11.3803C9.752 10.7083 9.38 9.86835 8.9 8.86035C8.42 7.82834 7.976 6.88034 7.568 6.01635ZM22.22 6.01635L24.488 5.18835C25.016 5.90834 25.58 6.72434 26.18 7.63634C26.804 8.52434 27.272 9.28034 27.584 9.90434L25.208 10.8763C24.92 10.2523 24.476 9.48434 23.876 8.57234C23.3 7.63634 22.748 6.78434 22.22 6.01635ZM13.22 21.0283L15.416 19.8763C15.944 20.6203 16.496 21.4243 17.072 22.2883C17.672 23.1523 18.236 23.9923 18.764 24.8083C19.292 25.6003 19.724 26.2843 20.06 26.8603L17.756 28.2643C17.468 27.6643 17.06 26.9443 16.532 26.1043C16.004 25.2643 15.452 24.4003 14.876 23.5123C14.3 22.6243 13.748 21.7963 13.22 21.0283ZM5.84 17.1403L8.432 14.5843L8.468 14.6563V33.8803H5.84V17.1403Z" fill="black"/>
</svg>
