<svg width="39" height="39" viewBox="0 0 39 39" fill="none" xmlns="http://www.w3.org/2000/svg">
<g clip-path="url(#clip0_646_1668)">
<path d="M1.59801 14.6692C0.757516 14.6692 0.0760624 13.9878 0.0760624 13.1473V2.01076C0.0760624 0.919905 0.96374 0.0322266 2.0546 0.0322266H14.1305C14.971 0.0322266 15.6525 0.71368 15.6525 1.55418C15.6525 2.39468 14.971 3.07613 14.1305 3.07613H3.11996V13.1473C3.11996 13.9878 2.43851 14.6692 1.59801 14.6692ZM37.0214 38.9561H24.4844C23.6439 38.9561 22.9624 38.2747 22.9624 37.4342C22.9624 36.5937 23.6439 35.9122 24.4844 35.9122H35.9561V23.5258C35.9561 22.6853 36.6375 22.0039 37.478 22.0039C38.3185 22.0039 39 22.6853 39 23.5258V36.9776C39 38.0684 38.1123 38.9561 37.0214 38.9561ZM39 2.01076V13.1591C39 13.9996 38.3185 14.681 37.478 14.681C36.6375 14.681 35.9561 13.9996 35.9561 13.1591V4.45235L25.4664 15.0775C25.1685 15.3788 24.7762 15.5303 24.3831 15.5303C23.9969 15.5303 23.6108 15.3841 23.314 15.0912C22.7158 14.5007 22.7098 13.5369 23.3003 12.9388L33.0373 3.07613H24.3835C23.5426 3.07613 22.8616 2.39468 22.8616 1.55418C22.8616 0.7133 23.5426 0.0322266 24.3835 0.0322266H37.0214C38.1123 0.0322266 39 0.919524 39 2.01076ZM1.77076 38.9356C1.68819 38.9493 1.60524 38.9561 1.52192 38.9561C1.13572 38.9561 0.749145 38.81 0.452745 38.517C0.0277404 38.0974 -0.0985815 37.4893 0.0760624 36.9578V36.9776C0.0760624 37.9722 0.813828 38.7978 1.77076 38.9356Z" fill="#505050"/>
<path d="M15.8107 37.4342C15.8107 38.2747 15.1293 38.9562 14.2888 38.9562H2.05459C1.95832 38.9562 1.86358 38.9493 1.77074 38.9356C0.813816 38.7979 0.0760498 37.9722 0.0760498 36.9776V23.4966C0.0760498 22.6561 0.757503 21.9746 1.598 21.9746C2.4385 21.9746 3.11995 22.6561 3.11995 23.4966V33.6487L13.5529 23.0818C14.1434 22.4833 15.1072 22.4772 15.7053 23.0678C16.3035 23.6583 16.3096 24.622 15.719 25.2202L5.16279 35.9123H14.2888C15.1293 35.9123 15.8107 36.5933 15.8107 37.4342Z" fill="#505050"/>
</g>
<defs>
<clipPath id="clip0_646_1668">
<rect width="39" height="39" fill="white"/>
</clipPath>
</defs>
</svg>
