<svg width="79" height="34" viewBox="0 0 79 34" fill="none" xmlns="http://www.w3.org/2000/svg">
<path d="M50.672 4L41.096 29.704H38L47.576 4H50.672Z" fill="black"/>
<path d="M0.684 20.232H32.652V22.788H0.684V20.232ZM4.392 11.808H29.088V21.276H26.388V14.184H6.984V21.276H4.392V11.808ZM15.084 7.668H17.892V17.64C17.892 18.888 17.772 20.112 17.532 21.312C17.316 22.488 16.896 23.652 16.272 24.804C15.648 25.932 14.736 27.012 13.536 28.044C12.336 29.052 10.764 29.988 8.82 30.852C6.9 31.74 4.512 32.52 1.656 33.192C1.56 33 1.416 32.76 1.224 32.472C1.032 32.184 0.828 31.896 0.612 31.608C0.42 31.344 0.216 31.116 0 30.924C2.736 30.324 5.016 29.64 6.84 28.872C8.664 28.104 10.128 27.276 11.232 26.388C12.336 25.5 13.164 24.576 13.716 23.616C14.268 22.656 14.628 21.672 14.796 20.664C14.988 19.656 15.084 18.636 15.084 17.604V7.668ZM18.324 21.168C19.476 23.88 21.324 26.028 23.868 27.612C26.436 29.172 29.652 30.216 33.516 30.744C33.3 30.936 33.084 31.176 32.868 31.464C32.652 31.752 32.448 32.052 32.256 32.364C32.064 32.676 31.908 32.952 31.788 33.192C29.1 32.712 26.724 31.992 24.66 31.032C22.62 30.072 20.868 28.824 19.404 27.288C17.964 25.752 16.788 23.916 15.876 21.78L18.324 21.168ZM1.116 3.312H32.04V5.76H1.116V3.312ZM8.748 0H11.412V9.54H8.748V0ZM21.672 0H24.372V9.54H21.672V0Z" fill="black"/>
<path d="M57.304 11.136H76.648V22.416H74.8V12.888H59.104V22.536H57.304V11.136ZM58.264 19.272H75.88V21.048H58.264V19.272ZM65.992 6.84H67.888V28.896H65.992V6.84Z" fill="#919191"/>
</svg>
