<svg width="41" height="41" viewBox="0 0 41 41" fill="none" xmlns="http://www.w3.org/2000/svg">
<path d="M15.7742 11.0293H9.46154C8.5893 11.0293 7.88461 11.734 7.88461 12.6062C7.88461 13.4785 8.5893 14.1831 9.46154 14.1831H15.7692C16.6415 14.1831 17.3462 13.4785 17.3462 12.6062C17.3462 11.734 16.6464 11.0293 15.7742 11.0293Z" fill="black"/>
<path d="M12.6203 7.875C11.7481 7.875 11.0434 8.57969 11.0434 9.45192V15.7596C11.0434 16.6318 11.7481 17.3365 12.6203 17.3365C13.4925 17.3365 14.1972 16.6318 14.1972 15.7596V9.45192C14.1972 8.57969 13.4876 7.875 12.6203 7.875ZM9.44675 23.6294C9.04267 23.6294 8.63858 23.7822 8.33305 24.0927C7.71707 24.7087 7.71707 25.709 8.33305 26.325L14.6802 32.6721C14.9857 32.9776 15.3898 33.1353 15.7939 33.1353C16.198 33.1353 16.602 32.9826 16.9076 32.6721C17.5236 32.0561 17.5236 31.0558 16.9076 30.4398L10.5605 24.0927C10.2549 23.7822 9.85084 23.6294 9.44675 23.6294Z" fill="black"/>
<path d="M15.7939 23.6288C15.3898 23.6288 14.9857 23.7815 14.6802 24.092L8.32812 30.4391C7.71214 31.0551 7.71214 32.0555 8.32812 32.6715C8.63365 32.977 9.03774 33.1347 9.44183 33.1347C9.84591 33.1347 10.25 32.9819 10.5555 32.6715L16.9026 26.3243C17.5186 25.7084 17.5186 24.708 16.9026 24.092C16.5971 23.7815 16.193 23.6288 15.7939 23.6288ZM31.5434 11.043H25.2357C24.3635 11.043 23.6588 11.7477 23.6588 12.6199C23.6588 13.4921 24.3635 14.1968 25.2357 14.1968H31.5434C32.4156 14.1968 33.1203 13.4921 33.1203 12.6199C33.1203 11.7477 32.4156 11.043 31.5434 11.043ZM31.5434 29.2515H25.2357C24.3635 29.2515 23.6588 29.9562 23.6588 30.8284C23.6588 31.7007 24.3635 32.4053 25.2357 32.4053H31.5434C32.4156 32.4053 33.1203 31.7007 33.1203 30.8284C33.1203 29.9562 32.4156 29.2515 31.5434 29.2515ZM31.5434 24.5257H25.2357C24.3635 24.5257 23.6588 25.2303 23.6588 26.1026C23.6588 26.9748 24.3635 27.6795 25.2357 27.6795H31.5434C32.4156 27.6795 33.1203 26.9748 33.1203 26.1026C33.1203 25.2303 32.4156 24.5257 31.5434 24.5257Z" fill="black"/>
<path d="M36.2692 3.15385C36.831 3.15385 37.2055 3.44459 37.378 3.622C37.5505 3.79447 37.8462 4.17392 37.8462 4.73077V36.2692C37.8462 36.831 37.5554 37.2055 37.378 37.378C37.2055 37.5505 36.8261 37.8462 36.2692 37.8462H4.73077C4.16899 37.8462 3.79447 37.5554 3.622 37.378C3.44952 37.2055 3.15385 36.8261 3.15385 36.2692V4.73077C3.15385 4.16899 3.44459 3.79447 3.622 3.622C3.7994 3.44952 4.17392 3.15385 4.73077 3.15385H36.2692ZM36.2692 0H4.73077C2.12885 0 0 2.12885 0 4.73077V36.2692C0 38.8712 2.12885 41 4.73077 41H36.2692C38.8712 41 41 38.8712 41 36.2692V4.73077C41 2.12885 38.8712 0 36.2692 0Z" fill="black"/>
</svg>
