<svg width="57" height="28" viewBox="0 0 57 28" fill="none" xmlns="http://www.w3.org/2000/svg">
<path d="M9.78001 26.9995H6.68401V9.03555C6.68401 8.33955 6.68401 7.75155 6.68401 7.27155C6.70801 6.79155 6.73201 6.34755 6.75601 5.93955C6.78001 5.50755 6.80401 5.06355 6.82801 4.60755C6.44401 4.99155 6.09601 5.31555 5.78401 5.57955C5.47201 5.84355 5.07601 6.17955 4.59601 6.58755L1.86001 8.81955L0.20401 6.69555L7.15201 1.29555H9.78001V26.9995Z" fill="black"/>
<path d="M36.3216 26.9995H19.3296V24.3715L26.0616 17.5675C27.3576 16.2715 28.4496 15.1195 29.3376 14.1115C30.2256 13.1035 30.8976 12.1195 31.3536 11.1595C31.8096 10.1755 32.0376 9.10755 32.0376 7.95555C32.0376 6.53955 31.6176 5.47155 30.7776 4.75155C29.9376 4.00755 28.8456 3.63555 27.5016 3.63555C26.2536 3.63555 25.1496 3.85155 24.1896 4.28355C23.2536 4.71555 22.2936 5.31555 21.3096 6.08355L19.6176 3.95955C20.2896 3.38355 21.0216 2.86755 21.8136 2.41155C22.6296 1.95555 23.5056 1.59555 24.4416 1.33155C25.4016 1.06755 26.4216 0.935547 27.5016 0.935547C29.1096 0.935547 30.4896 1.21155 31.6416 1.76355C32.7936 2.31555 33.6816 3.10755 34.3056 4.13955C34.9536 5.14755 35.2776 6.35955 35.2776 7.77555C35.2776 8.78355 35.1216 9.74355 34.8096 10.6555C34.4976 11.5435 34.0536 12.4195 33.4776 13.2835C32.9016 14.1475 32.2056 15.0235 31.3896 15.9115C30.5736 16.7995 29.6736 17.7235 28.6896 18.6835L23.3256 23.9755V24.1195H36.3216V26.9995Z" fill="black"/>
<path d="M55.9511 7.30755C55.9511 8.45955 55.7351 9.45555 55.3031 10.2955C54.8711 11.1355 54.2471 11.8195 53.4311 12.3475C52.6391 12.8755 51.7031 13.2475 50.6231 13.4635V13.6075C52.6871 13.8475 54.2231 14.4955 55.2311 15.5515C56.2391 16.6075 56.7431 17.9875 56.7431 19.6915C56.7431 21.1795 56.3951 22.5115 55.6991 23.6875C55.0031 24.8395 53.9231 25.7395 52.4591 26.3875C51.0191 27.0355 49.1591 27.3595 46.8791 27.3595C45.5351 27.3595 44.2871 27.2515 43.1351 27.0355C41.9831 26.8435 40.8791 26.4835 39.8231 25.9555V23.0035C40.9031 23.5315 42.0671 23.9515 43.3151 24.2635C44.5631 24.5515 45.7631 24.6955 46.9151 24.6955C49.2191 24.6955 50.8751 24.2515 51.8831 23.3635C52.9151 22.4515 53.4311 21.2035 53.4311 19.6195C53.4311 18.5395 53.1431 17.6755 52.5671 17.0275C52.0151 16.3555 51.1991 15.8635 50.1191 15.5515C49.0391 15.2395 47.7431 15.0835 46.2311 15.0835H43.7471V12.3835H46.2671C47.6831 12.3835 48.8591 12.1795 49.7951 11.7715C50.7551 11.3635 51.4751 10.7995 51.9551 10.0795C52.4591 9.33555 52.7111 8.48355 52.7111 7.52355C52.7111 6.27555 52.2911 5.31555 51.4511 4.64355C50.6111 3.94755 49.4711 3.59955 48.0311 3.59955C47.1191 3.59955 46.2911 3.69555 45.5471 3.88755C44.8031 4.05555 44.1071 4.30755 43.4591 4.64355C42.8351 4.95555 42.1991 5.32755 41.5511 5.75955L39.9671 3.59955C40.5911 3.11955 41.2991 2.67555 42.0911 2.26755C42.9071 1.85955 43.8071 1.53555 44.7911 1.29555C45.7751 1.05555 46.8431 0.935547 47.9951 0.935547C50.6831 0.935547 52.6751 1.53555 53.9711 2.73555C55.2911 3.93555 55.9511 5.45955 55.9511 7.30755Z" fill="black"/>
</svg>
