<svg width="70" height="35" viewBox="0 0 70 35" fill="none" xmlns="http://www.w3.org/2000/svg">
<path d="M0.00799561 19.8758C1.352 19.5158 2.984 19.0358 4.904 18.4358C6.824 17.8358 8.768 17.2238 10.736 16.5998L11.096 19.0478C9.296 19.6718 7.484 20.2838 5.66 20.8838C3.836 21.4838 2.18 22.0358 0.691996 22.5398L0.00799561 19.8758ZM0.475996 8.03177H11.132V10.5518H0.475996V8.03177ZM4.904 0.795765H7.532V30.4238C7.532 31.1918 7.436 31.7798 7.244 32.1878C7.076 32.6198 6.764 32.9558 6.308 33.1958C5.852 33.4118 5.264 33.5558 4.544 33.6278C3.824 33.6998 2.9 33.7358 1.772 33.7358C1.724 33.3758 1.616 32.9318 1.448 32.4038C1.304 31.8998 1.148 31.4558 0.979996 31.0718C1.748 31.0958 2.432 31.1078 3.032 31.1078C3.656 31.1078 4.076 31.1078 4.292 31.1078C4.508 31.1078 4.664 31.0598 4.76 30.9638C4.856 30.8678 4.904 30.6878 4.904 30.4238V0.795765ZM13.148 8.35577H32.408V10.9478H13.148V8.35577ZM11.96 18.1838H33.236V20.7758H11.96V18.1838ZM25.352 9.11176H27.98V33.7358H25.352V9.11176ZM15.308 1.98376L17.612 1.04777C18.068 1.67177 18.5 2.35577 18.908 3.09977C19.34 3.84377 19.736 4.57577 20.096 5.29576C20.456 5.99176 20.744 6.60377 20.96 7.13177L18.476 8.28377C18.308 7.73177 18.056 7.09577 17.72 6.37577C17.384 5.63177 17 4.87577 16.568 4.10777C16.16 3.33977 15.74 2.63177 15.308 1.98376ZM28.124 0.831765L30.968 1.80377C30.536 2.69177 30.08 3.61577 29.6 4.57577C29.12 5.53577 28.64 6.45977 28.16 7.34777C27.704 8.21177 27.26 8.97976 26.828 9.65176L24.668 8.75177C25.076 8.05577 25.496 7.25177 25.928 6.33976C26.36 5.40377 26.768 4.45577 27.152 3.49576C27.56 2.51176 27.884 1.62376 28.124 0.831765ZM17.504 9.14777H20.132V17.8238C20.132 19.1198 20.048 20.4878 19.88 21.9278C19.736 23.3678 19.412 24.8078 18.908 26.2478C18.428 27.6878 17.708 29.0798 16.748 30.4238C15.788 31.7438 14.516 32.9438 12.932 34.0238C12.812 33.8318 12.644 33.6158 12.428 33.3758C12.212 33.1358 11.984 32.8958 11.744 32.6558C11.528 32.4158 11.312 32.2358 11.096 32.1158C12.608 31.1798 13.796 30.1238 14.66 28.9478C15.524 27.7478 16.148 26.4998 16.532 25.2038C16.94 23.9078 17.204 22.6358 17.324 21.3878C17.444 20.1158 17.504 18.9278 17.504 17.8238V9.14777Z" fill="black"/>
<path d="M39.032 4.03577H67.292V6.48376H39.032V4.03577ZM36.98 12.4958H69.056V14.9438H36.98V12.4958ZM43.604 24.1598H62.648V26.3198H43.604V24.1598ZM43.64 30.2438H62.684V32.5478H43.64V30.2438ZM51.524 0.759766H54.332V5.40377H51.524V0.759766ZM42.272 18.0758H64.232V33.8078H61.424V20.3798H44.936V33.9158H42.272V18.0758ZM59.66 6.37577L62.576 7.09577C62.096 8.05577 61.592 9.05177 61.064 10.0838C60.56 11.0918 60.08 11.9558 59.624 12.6758L57.14 11.9918C57.428 11.4878 57.728 10.9118 58.04 10.2638C58.352 9.59177 58.652 8.91977 58.94 8.24777C59.228 7.55177 59.468 6.92777 59.66 6.37577ZM44 7.09577L46.556 6.51977C47.132 7.35977 47.636 8.29576 48.068 9.32776C48.5 10.3358 48.788 11.2118 48.932 11.9558L46.16 12.6758C46.016 11.8838 45.74 10.9718 45.332 9.93977C44.948 8.88377 44.504 7.93577 44 7.09577Z" fill="black"/>
</svg>
